# xmcd
#
# Track frame offsets:
#	150
#	21301
#	45295
#	65630
#	82473
#	97790
#	121082
#	138977
#	157390
#	187521
#	206350
#	219948
#	241114
#
# Disc length: 3423 seconds
#
# Revision: 0
# Processed by: cddbd v1.5.2PL0 Copyright (c) Steve Scherf et al.
# Submitted via: audiograbber 1.82.02
#
DISCID=a70d5d0d
DTITLE=Voodoo Hanks - Voodoo Hanks
DYEAR=1999
DGENRE=Blues
TTITLE0=It´s All Blues To Me
TTITLE1=Spanish Inquisation
TTITLE2=Lost In A Shuffle
TTITLE3=Stop The Apocalypso
TTITLE4=Iko Iko
TTITLE5=One Scotch, One Bourbon, One Beer
TTITLE6=My Song Is Don´t You Worry
TTITLE7=I Wanna Hug You
TTITLE8=Cold, Cold Feeling
TTITLE9=Enough Of That Stuff
TTITLE10=Kansas City
TTITLE11=Together We Stand
TTITLE12=Oh Cecilia
EXTD=
EXTT0=
EXTT1=
EXTT2=
EXTT3=
EXTT4=
EXTT5=
EXTT6=
EXTT7=
EXTT8=
EXTT9=
EXTT10=
EXTT11=
EXTT12=
PLAYORDER=
